<?xml version="1.0" encoding="UTF-8" standalone="no"?>
<!DOCTYPE svg PUBLIC "-//W3C//DTD SVG 1.1//EN" "http://www.w3.org/Graphics/SVG/1.1/DTD/svg11.dtd">
<svg width="100%" height="100%" viewBox="0 0 128 128" version="1.1" xmlns="http://www.w3.org/2000/svg" xmlns:xlink="http://www.w3.org/1999/xlink" xml:space="preserve" xmlns:serif="http://www.serif.com/" style="fill-rule:evenodd;clip-rule:evenodd;stroke-linejoin:round;stroke-miterlimit:2;">
    <g id="Layer1">
    </g>
    <g id="Layer2">
        <g transform="matrix(1.1628,0,0,0.963209,-7.48387,6.24783)">
            <rect x="85.555" y="20.507" width="5.16" height="61.254" style="fill:rgb(243,243,243);"/>
        </g>
        <g transform="matrix(0.68013,0,0,0.948602,32.0009,7.67551)">
            <path d="M97.039,19.493L88.217,19.493L90.423,13.168L94.834,13.168L97.039,19.493Z" style="fill:rgb(243,243,243);"/>
        </g>
        <g transform="matrix(0.904402,0,0,1.178,15.4409,-9.15686)">
            <rect x="80.229" y="79.929" width="15.48" height="25.467" style="fill:rgb(243,243,243);"/>
        </g>
        <g transform="matrix(1.36541,0,0,1.04595,-6.22343,-0.197848)">
            <rect x="27.964" y="29.661" width="7.324" height="76.068" style="fill:rgb(243,243,243);"/>
        </g>
        <g transform="matrix(1.37884,0,0,1.33507,-14.541,-9.26667)">
            <path d="M50.434,19.674L60.588,30.161L50.434,30.161L50.434,19.674Z" style="fill:rgb(243,243,243);"/>
        </g>
    </g>
    <g id="Layer4" transform="matrix(1,0,0,1,0,-3.3)">
        <g transform="matrix(1.49972,0,0,1.63223,-28.6367,-38.2597)">
            <path d="M57.957,57.625L52.432,57.625L57.425,49.968L67.412,49.968L72.406,57.625L66.952,57.625L66.954,57.603C66.954,55.226 64.938,53.296 62.454,53.296C59.971,53.296 57.954,55.226 57.954,57.603L57.957,57.625Z" style="fill:rgb(243,243,243);"/>
        </g>
        <g transform="matrix(-1.49972,-1.92407e-16,1.9512e-16,-1.63223,158.629,149.467)">
            <path d="M57.915,57.625L52.432,57.625L57.425,49.968L67.412,49.968L72.406,57.625L66.91,57.625C66.899,55.259 64.888,53.343 62.413,53.343C59.938,53.343 57.927,55.259 57.915,57.625Z" style="fill:rgb(243,243,243);"/>
        </g>
        <g transform="matrix(0.705132,0,0,0.675743,21.4247,21.2105)">
            <path d="M71.401,50.611L52.271,50.611L52.27,50.603L71.402,50.603L71.401,50.611Z" style="fill:rgb(0,122,204);"/>
        </g>
        <g transform="matrix(0.705132,0,0,0.675743,21.4247,21.2105)">
            <path d="M52.27,50.603L52.265,50.551C52.265,44.809 56.554,40.148 61.836,40.148C67.118,40.148 71.407,44.809 71.407,50.551L71.402,50.603L52.27,50.603Z" style="fill:rgb(0,122,204);fill-opacity:0;"/>
        </g>
        <g transform="matrix(0.705132,0,0,0.675743,21.4247,21.2105)">
            <path d="M71.401,50.611C71.377,56.325 67.1,60.954 61.836,60.954C56.572,60.954 52.295,56.325 52.271,50.611L71.401,50.611Z" style="fill:rgb(0,122,204);fill-opacity:0;"/>
        </g>
        <g transform="matrix(1.49972,0,0,1.63223,-28.6034,-3.15966)">
            <path d="M57.957,57.625L52.432,57.625L57.425,49.968L67.412,49.968L72.406,57.625L66.952,57.625L66.954,57.603C66.954,55.226 64.938,53.296 62.454,53.296C59.971,53.296 57.954,55.226 57.954,57.603L57.957,57.625Z" style="fill:rgb(243,243,243);"/>
        </g>
        <g transform="matrix(-1.49972,-1.92407e-16,1.9512e-16,-1.63223,158.662,184.619)">
            <path d="M57.915,57.625L52.432,57.625L57.425,49.968L67.412,49.968L72.406,57.625L66.91,57.625C66.899,55.259 64.888,53.343 62.413,53.343C59.938,53.343 57.927,55.259 57.915,57.625Z" style="fill:rgb(243,243,243);"/>
        </g>
        <g transform="matrix(0.705132,0,0,0.675743,21.458,56.3621)">
            <path d="M71.402,50.603L71.401,50.611L52.271,50.611L52.27,50.603L71.402,50.603Z" style="fill:rgb(0,122,204);"/>
        </g>
        <g transform="matrix(0.705132,0,0,0.675743,21.458,56.3621)">
            <path d="M52.27,50.603L52.265,50.551C52.265,44.809 56.554,40.148 61.836,40.148C67.118,40.148 71.407,44.809 71.407,50.551L71.402,50.603L52.27,50.603Z" style="fill:rgb(0,122,204);fill-opacity:0;"/>
        </g>
        <g transform="matrix(0.705132,0,0,0.675743,21.458,56.3621)">
            <path d="M71.401,50.611C71.377,56.325 67.1,60.954 61.836,60.954C56.572,60.954 52.295,56.325 52.271,50.611L71.401,50.611Z" style="fill:rgb(0,122,204);fill-opacity:0;"/>
        </g>
    </g>
    <g transform="matrix(1.11716,0,0,1.42558,-1.17003,-11.522)">
        <g id="Layer3">
            <rect x="9.987" y="20.007" width="40.281" height="9.821" style="fill:rgb(243,243,243);"/>
        </g>
    </g>
</svg>
